<svg xmlns="http://www.w3.org/2000/svg" xmlns:xlink="http://www.w3.org/1999/xlink" preserveAspectRatio="xMidYMid" width="168" height="145" viewBox="0 0 168 145">
  <defs>
    <style>
      .cls-1 {
        fill: #cdcdcd;
        fill-rule: evenodd;
      }
    </style>
  </defs>
  <path d="M0.000,79.000 L22.000,46.000 L45.000,26.000 L68.000,19.000 L85.000,26.000 L96.000,39.000 L109.000,48.000 L124.000,51.000 L143.000,52.000 L150.000,62.000 L151.000,80.000 L150.000,111.000 L143.000,134.000 L141.000,145.000 L150.000,145.000 L160.000,117.000 L168.000,91.000 L168.000,68.000 L160.000,46.000 L146.000,30.000 L126.000,11.000 L105.000,6.000 L85.000,0.000 L60.000,0.000 L44.000,6.000 L25.000,20.000 L9.000,45.000 L0.000,68.000 L0.000,79.000 Z" class="cls-1"/>
</svg>
