<svg xmlns="http://www.w3.org/2000/svg" xmlns:xlink="http://www.w3.org/1999/xlink" preserveAspectRatio="xMidYMid" width="500" height="500" viewBox="0 0 500 500">
  <defs>
    <style>
      .cls-1 {
        fill: #cdcdcd;
        fill-rule: evenodd;
      }
    </style>
  </defs>
  <g>
    <path d="M73.000,330.000 L95.000,297.000 L118.000,277.000 L141.000,270.000 L158.000,277.000 L169.000,290.000 L182.000,299.000 L197.000,302.000 L216.000,303.000 L223.000,313.000 L224.000,331.000 L223.000,362.000 L216.000,385.000 L214.000,396.000 L223.000,396.000 L233.000,368.000 L241.000,342.000 L241.000,319.000 L233.000,297.000 L219.000,281.000 L199.000,262.000 L178.000,257.000 L158.000,251.000 L133.000,251.000 L117.000,257.000 L98.000,271.000 L82.000,296.000 L73.000,319.000 L73.000,330.000 Z" class="cls-1"/>
    <path d="M239.000,178.000 L242.000,130.000 L242.000,110.000 L243.000,92.000 L254.000,83.000 L265.000,77.000 L272.000,77.000 L286.000,85.000 L292.000,95.000 L292.000,122.000 L293.000,142.000 L296.000,188.000 L273.000,187.000 L263.000,204.000 L256.000,189.000 L239.000,178.000 Z" class="cls-1"/>
    <path d="M349.000,39.000 L370.000,53.000 L379.000,63.000 L381.000,79.000 L377.000,95.000 L371.000,110.000 L365.000,123.000 L358.000,136.000 L349.000,146.000 L349.000,152.000 L360.000,163.000 L366.000,173.000 L366.000,182.000 L345.000,177.000 L332.000,182.000 L328.000,190.000 L307.000,179.000 L309.000,161.000 L317.000,147.000 L327.000,142.000 L315.000,134.000 L309.000,117.000 L300.000,103.000 L294.000,86.000 L291.000,71.000 L301.000,51.000 L323.000,37.000 L349.000,39.000 Z" class="cls-1"/>
    <path d="M312.000,429.000 L314.000,484.000 L371.000,487.000 L375.000,430.000 L312.000,429.000 Z" class="cls-1"/>
    <path d="M347.000,347.000 L340.000,326.000 L337.000,307.000 L332.000,294.000 L329.000,283.000 L330.000,268.000 L339.000,260.000 L349.000,260.000 L356.000,256.000 L372.000,253.000 L381.000,256.000 L390.000,266.000 L395.000,278.000 L394.000,287.000 L389.000,295.000 L387.000,309.000 L380.000,324.000 L378.000,338.000 L378.000,353.000 L347.000,347.000 Z" class="cls-1"/>
    <path d="M132.000,326.000 L112.000,318.000 L99.000,321.000 L91.000,329.000 L91.000,343.000 L97.000,359.000 L110.000,364.000 L127.000,364.000 L137.000,347.000 L132.000,326.000 Z" class="cls-1"/>
    <path d="M169.000,356.000 L185.000,351.000 L199.000,358.000 L207.000,368.000 L209.000,381.000 L204.000,394.000 L194.000,400.000 L179.000,399.000 L161.000,387.000 L159.000,370.000 L169.000,356.000 Z" class="cls-1"/>
  </g>
</svg>
