<svg xmlns="http://www.w3.org/2000/svg" xmlns:xlink="http://www.w3.org/1999/xlink" preserveAspectRatio="xMidYMid" width="500" height="500" viewBox="0 0 500 500">
  <defs>
    <style>
      .cls-1 {
        fill: #cdcdcd;
      }

      .cls-1, .cls-2 {
        fill-rule: evenodd;
      }

      .cls-2 {
        fill: #78ff00;
      }
    </style>
  </defs>
  <g>
    <path d="M73.000,330.000 L95.000,297.000 L118.000,277.000 L141.000,270.000 L158.000,277.000 L169.000,290.000 L182.000,299.000 L197.000,302.000 L216.000,303.000 L223.000,313.000 L224.000,331.000 L223.000,362.000 L216.000,385.000 L214.000,396.000 L223.000,396.000 L233.000,368.000 L241.000,342.000 L241.000,319.000 L233.000,297.000 L219.000,281.000 L199.000,262.000 L178.000,257.000 L158.000,251.000 L133.000,251.000 L117.000,257.000 L98.000,271.000 L82.000,296.000 L73.000,319.000 L73.000,330.000 Z" class="cls-1"/>
    <path d="M79.000,33.000 L95.000,37.000 L104.000,37.000 L112.000,28.000 L122.000,25.000 L132.000,29.000 L138.000,36.000 L140.000,47.000 L138.000,61.000 L131.000,73.000 L130.000,81.000 L144.000,90.000 L152.000,103.000 L157.000,119.000 L162.000,129.000 L161.000,138.000 L142.000,152.000 L132.000,159.000 L136.000,142.000 L135.000,129.000 L122.000,117.000 L111.000,114.000 L98.000,126.000 L97.000,143.000 L92.000,153.000 L78.000,148.000 L73.000,133.000 L63.000,123.000 L50.000,126.000 L40.000,120.000 L39.000,110.000 L45.000,107.000 L55.000,108.000 L61.000,114.000 L61.000,90.000 L68.000,82.000 L60.000,74.000 L56.000,55.000 L55.000,40.000 L70.000,32.000 L79.000,33.000 Z" class="cls-1"/>
    <path d="M224.000,104.000 L237.000,106.000 L253.000,109.000 L263.000,119.000 L277.000,132.000 L288.000,140.000 L288.000,152.000 L285.000,162.000 L278.000,177.000 L275.000,186.000 L265.000,197.000 L248.000,178.000 L231.000,178.000 L217.000,178.000 L209.000,178.000 L201.000,173.000 L192.000,162.000 L185.000,161.000 L172.000,162.000 L164.000,165.000 L164.000,152.000 L179.000,136.000 L182.000,125.000 L185.000,114.000 L196.000,106.000 L214.000,105.000 L224.000,104.000 Z" class="cls-1"/>
    <path d="M346.000,135.000 L330.000,120.000 L311.000,102.000 L303.000,87.000 L309.000,72.000 L322.000,57.000 L329.000,38.000 L342.000,51.000 L348.000,33.000 L363.000,51.000 L383.000,52.000 L389.000,63.000 L391.000,79.000 L387.000,100.000 L372.000,122.000 L346.000,135.000 Z" class="cls-2"/>
    <path d="M498.000,373.000 L487.000,360.000 L476.000,362.000 L473.000,338.000 L472.000,312.000 L472.000,299.000 L468.000,291.000 L446.000,291.000 L436.000,289.000 L430.000,284.000 L423.000,290.000 L412.000,290.000 L401.000,275.000 L398.000,265.000 L403.000,257.000 L392.000,253.000 L384.000,249.000 L374.000,230.000 L370.000,213.000 L370.000,196.000 L377.000,185.000 L388.000,170.000 L408.000,154.000 L423.000,144.000 L445.000,133.000 L462.000,137.000 L481.000,148.000 L492.000,161.000 L501.000,180.000 L498.000,373.000 Z" class="cls-1"/>
    <path d="M347.000,347.000 L340.000,326.000 L337.000,307.000 L332.000,294.000 L329.000,283.000 L330.000,268.000 L339.000,260.000 L349.000,260.000 L356.000,256.000 L372.000,253.000 L381.000,256.000 L390.000,266.000 L395.000,278.000 L394.000,287.000 L389.000,295.000 L387.000,309.000 L380.000,324.000 L378.000,338.000 L378.000,353.000 L347.000,347.000 Z" class="cls-1"/>
    <path d="M132.000,326.000 L112.000,318.000 L99.000,321.000 L91.000,329.000 L91.000,343.000 L97.000,359.000 L110.000,364.000 L127.000,364.000 L137.000,347.000 L132.000,326.000 Z" class="cls-1"/>
    <path d="M169.000,356.000 L185.000,351.000 L199.000,358.000 L207.000,368.000 L209.000,381.000 L204.000,394.000 L194.000,400.000 L179.000,399.000 L161.000,387.000 L159.000,370.000 L169.000,356.000 Z" class="cls-1"/>
  </g>
</svg>
